<svg width="21" height="16" fill="none" xmlns="http://www.w3.org/2000/svg"><path fill-rule="evenodd" clip-rule="evenodd" d="M20.003.013L.13 7.933a.196.196 0 00-.095.083.205.205 0 00-.034.115.202.202 0 00.129.19l5.9 2.132a.19.19 0 00.1.011.214.214 0 00.092-.038l11.194-8.171a.023.023 0 01.018 0 .035.035 0 01.016.01.02.02 0 01.002.008.02.02 0 01-.002.008.024.024 0 010 .018l-9.91 8.635a.214.214 0 00-.053.072.206.206 0 00-.017.088v4.598a.189.189 0 00.036.116.198.198 0 00.322.01l2.86-3.531a.206.206 0 01.102-.067.201.201 0 01.125 0l3.645 1.324a.2.2 0 00.15 0 .214.214 0 00.106-.108L20.268.278a.197.197 0 00.01-.115.192.192 0 00-.054-.103.198.198 0 00-.217-.047" fill="#131416"/></svg>