<svg width="21" height="16" viewBox="0 0 21 16" fill="none" xmlns="http://www.w3.org/2000/svg">
<path fill-rule="evenodd" clip-rule="evenodd" d="M20.0034 0.0128598L0.129033 7.93268C0.0891417 7.94928 0.0558411 7.97861 0.0343076 8.01613C0.0117417 8.05003 -0.000201261 8.08992 1.04102e-05 8.13067C-0.000403888 8.17145 0.0115566 8.2114 0.0343076 8.24521C0.0571765 8.27968 0.0903296 8.30602 0.129033 8.32049L6.02977 10.4526C6.06135 10.4653 6.09577 10.4692 6.1294 10.464C6.1624 10.4588 6.19372 10.4459 6.22086 10.4264L17.4148 2.25462C17.4176 2.25341 17.4207 2.25278 17.4238 2.25278C17.4269 2.25278 17.4299 2.25341 17.4328 2.25462C17.439 2.25629 17.4447 2.25969 17.4491 2.26444C17.4502 2.26703 17.4507 2.26981 17.4507 2.27262C17.4507 2.27543 17.4502 2.27821 17.4491 2.2808C17.4514 2.28659 17.4514 2.29302 17.4491 2.2988L7.54048 10.9337C7.51763 10.9536 7.49926 10.9781 7.48659 11.0057C7.47472 11.0335 7.46915 11.0637 7.47025 11.094V15.6921C7.46907 15.7337 7.4817 15.7746 7.50618 15.8083C7.53068 15.8425 7.56479 15.8687 7.60418 15.8835C7.64361 15.8976 7.68644 15.8988 7.7266 15.887C7.76676 15.8753 7.80221 15.8512 7.82792 15.8181L10.6877 12.2869C10.7143 12.2546 10.7502 12.2312 10.7905 12.2198C10.8309 12.2067 10.8743 12.2067 10.9147 12.2198L14.56 13.5436C14.6081 13.5632 14.6621 13.5632 14.7102 13.5436C14.7575 13.5218 14.7953 13.4834 14.8164 13.4356L20.268 0.277945C20.2826 0.241598 20.286 0.201707 20.2778 0.163402C20.2709 0.124268 20.2521 0.0882405 20.2239 0.0603133C20.1966 0.0314847 20.1613 0.0115432 20.1226 0.0030805C20.0838 -0.00538222 20.0435 -0.00197483 20.0067 0.0128598" fill="#131416"/>
</svg>
